<?xml version="1.0" encoding="utf-8"?>
<!-- Generator: Adobe Illustrator 23.1.0, SVG Export Plug-In . SVG Version: 6.00 Build 0)  -->
<svg version="1.1" id="Layer_1" xmlns="http://www.w3.org/2000/svg" xmlns:xlink="http://www.w3.org/1999/xlink" x="0px" y="0px"
	 viewBox="0 0 1500 437" style="enable-background:new 0 0 1500 437;" xml:space="preserve">
<style type="text/css">
	.st0{fill:#FFFFFF;}
	.st1{fill-rule:evenodd;clip-rule:evenodd;fill:#FFFFFF;}
</style>
<g>
	<g>
		<path class="st0" d="M217.6,157.9c0-0.1,0-0.1,0-0.2c0,0,0,0,0,0L190.5,26.2l-0.2-1.1c-0.7,0.5-1.6,0.9-2.6,1l0.2,0.9l0,0.1
			l26.9,130.7l0.1,0.4l-1,5v0l-26,123.9l-1.8,8.4l-1-4.6l-27.1-129.1l-1.1-5.3l0.1-0.3v0l27.2-129.1l0.2-1c-0.2,0-0.4,0.1-0.6,0.1
			c-0.8,0-1.5-0.1-2.2-0.3l-0.2,0.7l-27.4,129.6c0,0,0,0,0,0.1c0,0.1,0,0.3,0,0.4c0,0.1,0,0.1,0,0.2l29.1,138.7l0.4,1.9l0.5,2.5
			l0.1,0.5l0.4,1.7l0.1,0.3c0,0.2,0.1,0.4,0.2,0.5c0,0.1,0.1,0.1,0.1,0.2c0.1,0.1,0.2,0.2,0.3,0.2c0.2,0.1,0.4,0.2,0.7,0.2
			c0.2,0,0.4,0,0.6-0.1c0,0,0.1,0,0.1,0c0.2-0.1,0.4-0.2,0.5-0.4c0,0,0.1-0.1,0.1-0.1c0.1-0.1,0.1-0.3,0.2-0.4l0-0.1l0.2-1.1l0,0
			l0.1-0.5l0.1-0.3v0l0-0.2l0.4-2l0,0l0.3-1.3l29-138.5c0,0,0,0,0,0c0-0.1,0-0.2,0-0.2C217.6,158.1,217.6,158,217.6,157.9z
			 M185.6,25.3c-0.4,0-0.7-0.1-1-0.1v159.1c0.5-0.1,1-0.2,1.6-0.2c0.4,0,0.7,0.1,1.1,0.1V25.2C186.8,25.3,186.2,25.3,185.6,25.3z
			 M186,199.9c-0.5,0-1-0.1-1.4-0.1v100.7c0,0.3,0.1,0.6,0.3,0.8c0,0,0.1,0.1,0.1,0.1c0,0,0,0,0,0l0,0c0.2,0.2,0.5,0.4,0.9,0.4
			c0,0,0,0,0,0s0,0,0,0h0c0.3,0,0.7-0.1,0.9-0.3c0.1-0.1,0.2-0.2,0.3-0.4c0,0,0,0,0,0c0.1-0.1,0.1-0.3,0.1-0.5c0,0,0-0.1,0-0.1
			V199.8C186.9,199.9,186.4,199.9,186,199.9z"/>
		<path class="st1" d="M198,13.7c0,5-3,9.2-7.3,11.1c-0.7,0.3-1.5,0.6-2.3,0.7c-0.1,0-0.2,0-0.3,0.1c-0.7,0.1-1.4,0.2-2.1,0.2
			c-0.1,0-0.2,0-0.3,0c-0.2,0-0.4,0-0.6,0c-0.9-0.1-1.8-0.2-2.7-0.5c-4.9-1.5-8.5-6.1-8.5-11.5c0-6.7,5.4-12.1,12.1-12.1
			C192.6,1.7,198,7.1,198,13.7z M196.6,13.7c0-5.9-4.8-10.7-10.7-10.7c-5.9,0-10.7,4.8-10.7,10.7c0,4.8,3.1,8.8,7.4,10.2
			c0.5,0.2,1,0.3,1.5,0.4c0.1,0,0.1,0,0.2,0c0.3,0,0.6,0.1,1,0.1v0c0.1,0,0.3,0,0.4,0c0,0,0.1,0,0.1,0s0.1,0,0.1,0
			c0.6,0,1.3-0.1,1.9-0.2c0.2,0,0.4-0.1,0.6-0.1c0.7-0.2,1.4-0.4,2-0.7C194.1,21.8,196.6,18,196.6,13.7z"/>
		<path class="st1" d="M199.4,13.7c0,5.6-3.5,10.4-8.4,12.4c-0.8,0.3-1.7,0.6-2.6,0.8c0,0,0,0,0,0c-0.8,0.1-1.6,0.2-2.4,0.2
			c-0.1,0-0.2,0-0.3,0c-0.3,0-0.6,0-0.9,0c-0.9-0.1-1.8-0.3-2.7-0.5c-5.5-1.6-9.6-6.8-9.6-12.9c0-7.4,6-13.4,13.4-13.4
			C193.3,0.3,199.4,6.3,199.4,13.7z M196.6,13.7c0-5.9-4.8-10.7-10.7-10.7c-5.9,0-10.7,4.8-10.7,10.7c0,4.8,3.1,8.8,7.4,10.2
			c0.5,0.2,1,0.3,1.5,0.4c0.1,0,0.1,0,0.2,0c0.3,0,0.6,0.1,1,0.1c0.1,0,0.2,0,0.3,0c0.1,0,0.1,0,0.1,0c0,0,0.1,0,0.1,0s0.1,0,0.1,0
			c0.6,0,1.3-0.1,1.9-0.2c0.2,0,0.4-0.1,0.6-0.1c0.7-0.2,1.4-0.4,2-0.7C194.1,21.8,196.6,18,196.6,13.7z M179,187.7l-20.9-25.9
			l-3.6-4.4c-0.1-0.2-0.2-0.4-0.3-0.6c0-0.1,0-0.1,0-0.2c0-0.1,0-0.3,0-0.4c0,0,0,0,0-0.1c0.1-0.3,0.2-0.5,0.5-0.7
			c0.6-0.5,1.4-0.4,1.9,0.2l0.4,0.5v0l23.7,29.3l0.5,0.6c-0.6,0.7-1.1,1.5-1.6,2.4L179,187.7z M217.6,158.1c0,0.1,0,0.2,0,0.2
			c0,0.2-0.1,0.5-0.3,0.6l-3.5,4.1v0l-19.9,23.5l-0.9,1.1l-0.9,1.1c-0.5-0.8-1.2-1.4-2-1.9l0.9-1.1l0.9-1l22.9-27l0.4-0.5
			c0.5-0.6,1.4-0.6,1.9-0.2c0.2,0.2,0.4,0.4,0.4,0.7c0,0,0,0,0,0c0,0.1,0,0.1,0,0.2C217.6,158,217.6,158.1,217.6,158.1z M187.3,299
			c0,0.2,0,0.3-0.1,0.4c-0.1,0.3-0.3,0.5-0.5,0.7c0,0,0,0,0,0c-0.1,0.1-0.3,0.1-0.4,0.2l-0.6,0.1c-0.2,0.1-0.3,0.1-0.5,0.1l-1.3,0.3
			l-84.8,18.8l-1.8,0.4h0c-0.1,0-0.2,0-0.3,0c-0.1,0-0.2,0-0.3,0L26,305.6l-1.4-0.3l-0.4-0.1c0,0,0,0,0,0c0.5-0.8,0.9-1.6,1.1-2.5
			l1.3,0.3L97,317.3l0.9-0.2l6-1.3h0l68.1-15.1l-49.2,0.5h-0.5l-1.4,0l-0.5,0c0.1-0.9,0.1-1.8-0.1-2.7h0.4l1,0h0.4l49.8-0.5h0l1.9,0
			l-2.1-0.4h0l-68.6-13.8l0,0l-5.4-1.1l-0.3,0.1l0,0L26.5,298l-1.3,0.3c-0.1-0.4-0.3-0.7-0.5-1.1c-0.1-0.5-0.3-1-0.4-1.5l0.1,0
			l1.4-0.3l71.7-15.6l0,0c0.1,0,0.2,0,0.3,0c0.1,0,0.1,0,0.2,0c0,0,0.1,0,0.1,0c0,0,0,0,0,0l78.8,15.9l3.7,0.7l2.3,0.5l0.9,0.2
			l0.5,0.1l0.5,0.1l0,0l0.2,0l0.3,0.1l0,0l0.4,0.1l0.1,0l0,0l0.6,0.1c0,0,0.1,0,0.1,0c0,0,0,0,0.1,0c0.1,0,0.2,0.1,0.3,0.1
			c0.3,0.2,0.5,0.4,0.6,0.8C187.3,298.7,187.3,298.8,187.3,299z M105.7,301.3h-0.2l-1.4,0L27,302l-1.7,0c0.6-0.7,0.7-1.9,0.2-2.7
			l1.3,0l77.3-0.7l1.4,0h0.1C105.5,299.4,105.6,300.4,105.7,301.3z"/>
		<path class="st1" d="M26.9,299.9c0,0.2,0,0.4,0,0.7c0,0.5-0.1,1-0.1,1.4c-0.2,0.9-0.4,1.8-0.7,2.6c-1.9,5.1-6.8,8.7-12.6,8.7
			c-7.4,0-13.4-6-13.4-13.4s6-13.4,13.4-13.4c5.5,0,10.2,3.3,12.3,8c0.4,0.8,0.6,1.7,0.8,2.6c0.1,0.3,0.1,0.5,0.2,0.8
			C26.8,298.5,26.9,299.2,26.9,299.9z M24.1,300.6c0-0.2,0-0.5,0-0.7c0-0.7-0.1-1.4-0.2-2c0-0.1,0-0.2-0.1-0.3
			c-0.2-0.9-0.5-1.8-0.9-2.6c-1.8-3.5-5.4-5.8-9.5-5.8c-5.9,0-10.7,4.8-10.7,10.7c0,5.9,4.8,10.7,10.7,10.7c4.4,0,8.2-2.7,9.9-6.5
			c0.3-0.8,0.6-1.7,0.7-2.6C24.1,301.2,24.1,300.9,24.1,300.6z M113.4,291.6c-1.3,0.1-2.3,0.4-3.2,1l-0.1-0.1l-1.2-0.9l-11.6-8.9h0
			l-0.5-0.4c-0.3-0.3-0.5-0.6-0.5-1c1.1,0,2-0.2,2.8-0.6l3.9,3l0,0l9,7L113.4,291.6z M112.8,308.5l-0.3,0.3l-8.6,6.9h0l-3.6,2.9
			c-0.9-0.4-1.9-0.7-3.1-0.7c-0.1,0-0.3,0-0.4,0c0.1-0.1,0.1-0.2,0.3-0.3l0.8-0.6l11.3-9.1h0l0.7-0.6
			C110.7,307.9,111.7,308.3,112.8,308.5z"/>
		<path class="st1" d="M122.1,299.9c0,0.3,0,0.6,0,0.9c0,0.2,0,0.3-0.1,0.5c-0.7,4.4-4.5,7.7-9,7.7c-0.2,0-0.3,0-0.5,0
			c-1.2-0.1-2.3-0.4-3.3-0.8h0c-2.8-1.3-4.8-4-5.2-7.1c0-0.4-0.1-0.7-0.1-1.1c0-0.6,0-1.1,0.1-1.6c0.5-2.9,2.4-5.3,4.9-6.5
			c1-0.5,2.1-0.8,3.2-0.9c0.3,0,0.6,0,0.9,0c4.4,0,8.1,3.2,8.9,7.4c0,0.1,0,0.2,0.1,0.3l0,0C122.1,299,122.1,299.4,122.1,299.9z
			 M119.3,300.9c0-0.3,0.1-0.6,0.1-0.9v0c0-0.6-0.1-1.2-0.3-1.7c-0.8-2.7-3.2-4.7-6.2-4.7c-0.6,0-1.1,0.1-1.6,0.2
			c-2.2,0.6-4,2.3-4.6,4.6c-0.1,0.5-0.2,1.1-0.2,1.6c0,0.4,0,0.7,0.1,1.1c0.4,2.6,2.4,4.6,5,5.2h0c0.4,0.1,0.9,0.1,1.3,0.1
			C116.2,306.3,118.9,304,119.3,300.9z M186.9,299.9c0,0.2-0.1,0.4-0.3,0.6l0,0l0,0c0,0,0,0,0,0c-0.2,0.2-0.3,0.3-0.5,0.4
			c0,0-0.1,0-0.1,0c-0.1,0-0.2,0-0.3,0c-0.2,0-0.5,0-0.7-0.2c0,0,0,0-0.1,0l-0.1-0.1l-0.3-0.2l-4-2.5l-2.7-1.7l-90.5-56.5
			c-0.2-0.1-0.3-0.3-0.5-0.4l-56-82.2l-0.8-1.1l-0.8-1.2c0.8-0.4,1.6-0.9,2.3-1.5l0.8,1.1l0.8,1.1l55.6,81.6l0.2,0.3l4.6,2.9h0
			l83,51.8l-46.1-44.3l-1-0.9l-1-1c0.8-0.5,1.4-1.2,1.9-1.9l1,0.9l1,1l43.9,42.1l0,0l0,0l-52.6-77l0,0l-3.2-4.7l-0.3-0.2l-84.6-53.2
			l-0.3-0.2v0v0l0.2,0.2l83.8,80.4l1,0.9l1,1c-0.8,0.5-1.4,1.2-1.8,2l-1-1l-1-1l-83.8-80.4l-1-0.9l-1-1c0.6-0.5,1.1-1,1.5-1.6
			c0.1-0.1,0.1-0.2,0.2-0.3c0-0.1,0.1-0.1,0.1-0.1c0.4-0.6,0.8-1.3,1.1-2l1.2,0.7l1.2,0.7l85.1,53.6c0.1,0,0.1,0.1,0.2,0.1
			c0.1,0,0.1,0.1,0.1,0.1c0,0,0,0.1,0.1,0.1c0,0,0.1,0.1,0.1,0.1c0,0,0,0,0,0.1l60.3,88.2l1.8,2.7l1.1,1.6l0.1,0.1l0,0l0.1,0.1
			c0,0,0.1,0,0.1,0.1c0,0,0,0,0,0c0.1,0.1,0.2,0.2,0.2,0.3c0,0,0,0,0,0.1c0,0,0,0,0,0.1l0,0l0.1,0.1l0.1,0.1l0.4,0.5
			c0.1,0.1,0.1,0.2,0.1,0.3C186.9,299.4,186.9,299.7,186.9,299.9z"/>
		<path class="st1" d="M38.1,145.2c0,2-0.4,3.9-1.2,5.6c-0.4,0.8-0.8,1.6-1.4,2.3c0,0,0,0,0,0.1c-0.5,0.7-1.2,1.4-1.8,2
			c-0.2,0.2-0.4,0.3-0.6,0.5c-0.7,0.6-1.5,1.1-2.3,1.5c-1.8,0.9-3.9,1.4-6.1,1.4c-7.4,0-13.4-6-13.4-13.4c0-7.4,6-13.4,13.4-13.4
			C32,131.8,38.1,137.8,38.1,145.2z M35.3,145.2c0-5.9-4.8-10.7-10.7-10.7c-5.9,0-10.7,4.8-10.7,10.7c0,5.9,4.8,10.7,10.7,10.7
			c1.6,0,3.1-0.4,4.5-1c0.8-0.4,1.6-0.9,2.3-1.5c0,0,0.1-0.1,0.1-0.1c0.6-0.5,1.1-1,1.5-1.6c0.1-0.1,0.2-0.3,0.3-0.4
			c0.4-0.6,0.8-1.3,1.1-2C35,148.1,35.3,146.7,35.3,145.2z M118.5,240.8c0,0.8,0.1,1.5,0.4,2.1l-1.5-0.1l-1.4-0.1l-22.5-2.1h0
			l-5.7-0.5c-0.2,0-0.4-0.1-0.6-0.2c-0.2-0.1-0.3-0.3-0.4-0.4c-0.2-0.3-0.3-0.6-0.2-0.9c0.1-0.8,0.7-1.3,1.5-1.2l0.6,0.1l27.2,2.5
			l1.3,0.1l1.4,0.1C118.5,240.4,118.5,240.6,118.5,240.8z M127.2,234.8c-0.7-0.3-1.5-0.4-2.3-0.4c-0.2,0-0.3,0-0.5,0l-0.2-1.3
			l-0.2-1.4l-3.9-25.3l-0.1-0.6c-0.1-0.8,0.4-1.4,1.1-1.6c0.3-0.1,0.6,0,0.9,0.2c0.1,0,0.1,0.1,0.2,0.1c0.1,0,0.1,0.1,0.1,0.1
			c0,0,0.1,0.1,0.1,0.1c0,0,0.1,0.1,0.1,0.1c0,0,0,0,0,0.1c0.1,0.1,0.1,0.3,0.2,0.5l0.9,5.9l0,0l3.2,20.5l0.2,1.5L127.2,234.8z"/>
		<path class="st1" d="M132.6,240.8c0,1.6-0.5,3.2-1.4,4.4c-0.5,0.8-1.2,1.4-1.9,1.9c-1.3,0.9-2.8,1.4-4.4,1.4
			c-3.6,0-6.6-2.4-7.5-5.8c-0.2-0.6-0.3-1.3-0.3-2c0-0.3,0-0.5,0-0.8c0.1-1.3,0.5-2.4,1.2-3.4c0.5-0.8,1.1-1.4,1.8-2
			c1.1-0.8,2.5-1.4,4-1.5c0.2,0,0.5,0,0.7,0c0.7,0,1.4,0.1,2.1,0.3C130.2,234.2,132.6,237.2,132.6,240.8z M131.3,240.8
			c0-2.7-1.7-5.1-4.1-6c-0.7-0.3-1.5-0.4-2.3-0.4c-0.2,0-0.3,0-0.5,0c-1.2,0.1-2.3,0.5-3.2,1.2c-0.8,0.5-1.4,1.2-1.8,2
			c-0.5,0.8-0.8,1.7-0.8,2.6c0,0.2,0,0.4,0,0.6c0,0.8,0.1,1.5,0.4,2.1c0.9,2.5,3.3,4.3,6,4.3c1.3,0,2.4-0.4,3.4-1
			c0.8-0.5,1.4-1.2,1.9-1.9C130.9,243.2,131.3,242.1,131.3,240.8z"/>
		<path class="st1" d="M134,240.8c0,2-0.6,3.9-1.8,5.4c-0.5,0.7-1.2,1.4-1.9,1.9c-1.5,1.1-3.4,1.8-5.4,1.8c-4.4,0-8.1-3.1-8.9-7.3
			c-0.1-0.6-0.2-1.2-0.2-1.9c0-0.3,0-0.6,0-0.9c0.1-1.6,0.7-3,1.5-4.3c0.5-0.8,1.2-1.4,1.9-2c1.3-1.1,3-1.8,4.7-1.9
			c0.3,0,0.6-0.1,0.9-0.1c0.6,0,1.3,0.1,1.8,0.2C130.9,232.7,134,236.4,134,240.8z M130.2,244.3c0.7-1,1-2.2,1-3.5
			c0-2.7-1.7-5.1-4.1-6c-0.7-0.3-1.5-0.4-2.3-0.4c-0.2,0-0.3,0-0.5,0c-1.2,0.1-2.3,0.5-3.2,1.2c-0.8,0.5-1.4,1.2-1.8,2
			c-0.5,0.8-0.8,1.7-0.8,2.6c0,0.2,0,0.4,0,0.6c0,0.8,0.1,1.5,0.4,2.1c0.9,2.5,3.3,4.3,6,4.3c1.3,0,2.4-0.4,3.4-1
			C129.1,245.7,129.7,245,130.2,244.3z M193.7,192.3c0,3.9-2.9,7.2-6.7,7.7c-0.3,0-0.7,0.1-1.1,0.1c-0.6,0-1.1-0.1-1.7-0.2
			c-3.5-0.8-6.1-3.9-6.1-7.6c0-1.3,0.3-2.4,0.8-3.5c0.4-0.8,1-1.6,1.7-2.3c1-0.9,2.2-1.6,3.6-1.9c0.5-0.1,1.1-0.2,1.7-0.2
			c0.4,0,0.7,0,1.1,0.1c1.1,0.2,2.2,0.6,3.1,1.2c0.8,0.5,1.4,1.1,2,1.9C193.1,188.9,193.7,190.5,193.7,192.3z M192.3,192.3
			c0-1.3-0.4-2.6-1.1-3.6c-0.5-0.8-1.2-1.4-2-1.9c-0.7-0.4-1.4-0.7-2.3-0.8c-0.3-0.1-0.7-0.1-1.1-0.1c-0.6,0-1.1,0.1-1.7,0.2
			c-1,0.3-2,0.8-2.7,1.5c-0.7,0.6-1.2,1.5-1.6,2.4c-0.3,0.7-0.4,1.5-0.4,2.3c0,2.9,2,5.4,4.7,6.2c0.5,0.1,1.1,0.2,1.7,0.2
			c0.4,0,0.7,0,1.1-0.1C190,198.1,192.3,195.4,192.3,192.3z"/>
		<path class="st1" d="M195.1,192.3c0,4.7-3.5,8.5-8.1,9.1c-0.3,0-0.7,0.1-1.1,0.1c-0.6,0-1.1,0-1.7-0.1c-4.2-0.8-7.5-4.5-7.5-9
			c0-1.7,0.5-3.3,1.3-4.6c0.5-0.8,1.1-1.5,1.8-2.2c1.2-1.1,2.8-1.9,4.4-2.2c0.5-0.1,1.1-0.1,1.7-0.1c0.4,0,0.7,0,1.1,0.1
			c1.5,0.2,2.9,0.7,4,1.5c0.8,0.5,1.4,1.1,2,1.8C194.3,188.1,195.1,190.1,195.1,192.3z M192.3,192.3c0-1.3-0.4-2.6-1.1-3.6
			c-0.5-0.8-1.2-1.4-2-1.9c-0.7-0.4-1.4-0.7-2.3-0.8c-0.3-0.1-0.7-0.1-1.1-0.1c-0.6,0-1.1,0.1-1.7,0.2c-1,0.3-2,0.8-2.7,1.5
			c-0.7,0.6-1.2,1.5-1.6,2.4c-0.3,0.7-0.4,1.5-0.4,2.3c0,2.9,2,5.4,4.7,6.2c0.5,0.1,1.1,0.2,1.7,0.2c0.4,0,0.7,0,1.1-0.1
			C190,198.1,192.3,195.4,192.3,192.3z M184.6,425V297.7c0-1.2,0-2.4,0.1-3.4h0c0-0.3,0.1-0.6,0.1-0.8c0.1-1,0.3-1.8,0.5-2.4
			c0,0,0-0.1,0-0.1c0.2-0.4,0.3-0.7,0.5-0.7h0.1c0.4,0.1,0.8,1.1,1,2.8c0,0.1,0,0.2,0,0.3c0,0.2,0.1,0.5,0.1,0.8c0,0,0,0.1,0,0.1
			c0.1,0.7,0.1,1.5,0.1,2.3c0,0.4,0,0.7,0,1.1v126.9c-0.3-0.3-0.7-0.6-1.1-0.6C185.6,424,185.1,424.4,184.6,425z"/>
		<path class="st1" d="M191.5,430.1c0,3.1-2.5,5.6-5.6,5.6c-3.1,0-5.6-2.5-5.6-5.6c0-2.6,1.8-4.8,4.2-5.4c0.4-0.1,0.9-0.2,1.4-0.2
			c0.5,0,0.9,0.1,1.4,0.2C189.7,425.3,191.5,427.4,191.5,430.1z M190.1,430.1c0-1.9-1.2-3.4-2.9-4c-0.4-0.1-0.9-0.2-1.4-0.2
			c-0.5,0-0.9,0.1-1.4,0.2c-1.7,0.6-2.9,2.1-2.9,4c0,2.3,1.9,4.2,4.2,4.2C188.3,434.3,190.1,432.4,190.1,430.1z"/>
		<path class="st1" d="M192.9,430.1c0,3.8-3.1,6.9-6.9,6.9c-3.8,0-6.9-3.1-6.9-6.9c0-3.4,2.4-6.2,5.6-6.8c0.4-0.1,0.9-0.1,1.4-0.1
			c0.5,0,0.9,0.1,1.4,0.1C190.5,423.9,192.9,426.7,192.9,430.1z M190.1,430.1c0-1.9-1.2-3.4-2.9-4c-0.4-0.1-0.9-0.2-1.4-0.2
			c-0.5,0-0.9,0.1-1.4,0.2c-1.7,0.6-2.9,2.1-2.9,4c0,2.3,1.9,4.2,4.2,4.2C188.3,434.3,190.1,432.4,190.1,430.1z M197.2,71.4
			c0-0.5,0.4-0.8,0.8-0.8c0.5,0,0.8,0.3,0.8,0.8s-0.4,0.8-0.8,0.8C197.5,72.2,197.2,71.8,197.2,71.4z M207.9,373.6h52.9
			c10.7,0,20.6-5.7,25.9-15l19.3-33.4h5.5l-20.6,35.8c-6.2,10.7-17.7,17.4-30.1,17.4h-52.9V373.6z M163.6,378.4H111
			c-12.4,0-23.9-6.6-30.1-17.4l-20.6-35.8h5.5l19.3,33.4c5.3,9.2,15.3,15,25.9,15h52.6V378.4z M31.7,174.4L31.7,174.4l-15.6,27
			c-5.3,9.2-5.3,20.7,0,29.9l28.3,48.7h-5.5l-26.9-46.3c-6.2-10.7-6.2-24,0-34.7l14.2-24.6H31.7z M184.6,298.7
			c0.1-0.3,0.3-0.6,0.6-0.8c0.1,0,0.2-0.1,0.3-0.1c0,0,0,0,0.1,0c0,0,0.1,0,0.1,0l0.6-0.1l0,0l0.1,0l0.4-0.1l0,0l0.3,0l0.2,0l0,0
			l0.5-0.1l0.5-0.1l0.9-0.2l2.3-0.5l3.7-0.7l78.8-15.9c0,0,0,0,0,0c0,0,0,0,0.1,0c0.1,0,0.1,0,0.2,0c0.1,0,0.2,0,0.3,0h0l71.7,15.6
			l1.4,0.3l0.1,0c-0.2,0.5-0.3,1-0.4,1.5c-0.2,0.3-0.4,0.7-0.5,1.1l-1.3-0.3l-70.8-15.4h0l-0.3-0.1l-5.4,1.1h0l-68.6,13.8h0
			l-2.1,0.4l1.9,0h0l49.8,0.5h0.4l1,0h0.4c-0.2,0.9-0.2,1.8-0.1,2.7l-0.5,0l-1.4,0h-0.5l-49.2-0.5l68.1,15.1l0,0l6,1.3l0.9,0.2
			l70.3-14.3l1.3-0.3c0.2,0.9,0.6,1.8,1.1,2.5c0,0,0,0,0,0l-0.4,0.1l-1.4,0.3l-70.8,14.4c-0.1,0-0.2,0-0.3,0c-0.1,0-0.2,0-0.3,0h0
			l-1.8-0.4L187.9,301l-1.3-0.3c-0.2,0-0.3-0.1-0.5-0.1l-0.6-0.1c-0.1,0-0.3-0.1-0.4-0.2c0,0,0,0-0.1,0c-0.3-0.2-0.4-0.4-0.5-0.7
			c-0.1-0.1-0.1-0.3-0.1-0.4C184.6,299,184.6,298.9,184.6,298.7z M266.2,298.7L266.2,298.7l1.5,0l77.3,0.7l1.3,0
			c-0.4,0.9-0.4,2,0.3,2.7l-1.6,0l-77.1-0.7l-1.4,0h-0.2C266.3,300.5,266.3,299.6,266.2,298.7z"/>
		<path class="st1" d="M345.1,298c0-0.3,0.1-0.5,0.1-0.8c0.2-0.9,0.5-1.8,0.9-2.6c2.1-4.7,6.8-8,12.3-8c7.4,0,13.4,6,13.4,13.4
			c0,7.4-6,13.4-13.4,13.4c-5.8,0-10.7-3.6-12.6-8.7c-0.3-0.8-0.6-1.7-0.7-2.6c-0.1-0.5-0.1-0.9-0.1-1.4c0-0.2,0-0.5,0-0.7
			C345,299.4,345,298.7,345.1,298z M347.8,301.6c0.1,0.9,0.4,1.8,0.7,2.6c1.6,3.8,5.4,6.5,9.9,6.5c5.9,0,10.7-4.8,10.7-10.7
			c0-5.9-4.8-10.7-10.7-10.7c-4.2,0-7.8,2.4-9.5,5.8c-0.4,0.8-0.7,1.7-0.9,2.6c0,0.1,0,0.2,0,0.3c-0.1,0.6-0.2,1.3-0.2,2
			c0,0.2,0,0.5,0,0.7C347.8,301.1,347.8,301.3,347.8,301.6z M259.7,290.7l9-7h0l3.9-3c0.8,0.4,1.8,0.6,2.8,0.6c0,0.4-0.2,0.8-0.5,1
			l-0.5,0.4h0l-11.5,8.9l-1.2,0.9l-0.1,0.1c-0.9-0.5-2-0.9-3.2-1L259.7,290.7z M262,307.5l0.7,0.6h0l11.3,9.1l0.8,0.6
			c0.1,0.1,0.2,0.2,0.3,0.3c-0.1,0-0.3,0-0.4,0c-1.2,0-2.2,0.2-3.1,0.7l-3.6-2.9l0,0l-8.6-6.9l-0.3-0.3
			C260.2,308.5,261.2,308.1,262,307.5z"/>
		<path class="st1" d="M249.8,298.7L249.8,298.7c0-0.1,0-0.2,0.1-0.4c0.8-4.2,4.5-7.4,9-7.4c0.3,0,0.6,0,0.9,0
			c1.2,0.1,2.3,0.4,3.2,0.9c2.5,1.3,4.4,3.7,4.9,6.5c0.1,0.5,0.1,1.1,0.1,1.6c0,0.4,0,0.8-0.1,1.1c-0.4,3.2-2.4,5.9-5.2,7.1h0
			c-1,0.5-2.1,0.8-3.3,0.8c-0.2,0-0.4,0-0.5,0c-4.6,0-8.3-3.3-9-7.7c0-0.2-0.1-0.3-0.1-0.5c0-0.3-0.1-0.6-0.1-1
			C249.7,299.6,249.8,299.1,249.8,298.7z M258.9,306.5c0.4,0,0.9-0.1,1.3-0.1l0,0c2.5-0.5,4.5-2.6,5-5.2c0.1-0.4,0.1-0.7,0.1-1.1
			c0-0.6-0.1-1.1-0.2-1.6c-0.6-2.2-2.4-4-4.6-4.6c-0.5-0.1-1.1-0.2-1.6-0.2c-2.9,0-5.4,2-6.2,4.7c-0.2,0.6-0.2,1.1-0.2,1.7v0
			c0,0.3,0,0.6,0.1,0.9C253,304.1,255.6,306.5,258.9,306.5z M185.4,299.2c0-0.1,0.1-0.2,0.2-0.3l0.4-0.5l0.1-0.1l0.1-0.1l0,0
			c0,0,0,0,0-0.1c0,0,0,0,0-0.1c0-0.1,0.1-0.2,0.2-0.3c0,0,0,0,0,0c0,0,0.1-0.1,0.1-0.1l0.1-0.1l0,0l0.1-0.1l1.1-1.6l1.8-2.7
			l60.3-88.2c0,0,0-0.1,0-0.1c0,0,0.1-0.1,0.1-0.1c0,0,0.1-0.1,0.1-0.1c0,0,0.1-0.1,0.1-0.1c0.1,0,0.1-0.1,0.2-0.1l85.1-53.6
			l1.2-0.7l1.2-0.7c0.3,0.7,0.6,1.4,1.1,2c0,0,0,0,0,0c0.1,0.1,0.1,0.2,0.2,0.2c0,0,0.1,0.1,0.1,0.1l0,0l0,0c0.5,0.6,1,1.1,1.5,1.6
			l-1,1l-1,0.9l-83.8,80.4l-1,1l-1,1c-0.5-0.8-1.1-1.5-1.8-2l1-1l1-0.9l83.8-80.4l0.2-0.2l0,0l0,0l-0.3,0.2l-84.6,53.2l-0.3,0.2
			l-3.2,4.7l0,0l-52.6,77l0,0l0,0l43.9-42.1l1-1l1-0.9c0.5,0.8,1.2,1.4,1.9,1.9l-1,1l-1,0.9l-46.1,44.3l83-51.8h0l4.6-2.9l0.2-0.3
			l55.6-81.6l0.8-1.1l0.8-1.1c0.7,0.6,1.5,1.1,2.3,1.5l-0.8,1.2l-0.8,1.1l-56,82.2c-0.1,0.2-0.3,0.3-0.4,0.4l-90.6,56.5l-2.7,1.7
			l-4,2.5l-0.3,0.2l-0.1,0.1c0,0,0,0-0.1,0c-0.2,0.1-0.4,0.2-0.7,0.2c-0.1,0-0.2,0-0.3,0c0,0-0.1,0-0.1,0c-0.2-0.1-0.4-0.2-0.5-0.4
			c0,0,0,0,0,0h0v0c-0.2-0.2-0.3-0.4-0.3-0.6C185.3,299.7,185.3,299.4,185.4,299.2z"/>
		<path class="st1" d="M347.6,131.8c7.4,0,13.4,6,13.4,13.4c0,7.4-6,13.4-13.4,13.4c-2.2,0-4.2-0.5-6-1.4c-0.8-0.4-1.6-0.9-2.3-1.5
			c-0.2-0.1-0.4-0.3-0.6-0.5c-0.7-0.6-1.3-1.3-1.8-2c0,0,0,0-0.1-0.1c-0.5-0.7-1-1.5-1.4-2.3c-0.8-1.7-1.2-3.6-1.2-5.6
			C334.2,137.8,340.2,131.8,347.6,131.8z M337.7,149.4c0.3,0.7,0.7,1.4,1.1,2c0.1,0.1,0.2,0.3,0.3,0.4c0.5,0.6,1,1.1,1.5,1.6
			c0,0,0.1,0.1,0.1,0.1c0.7,0.6,1.5,1.1,2.3,1.5c1.4,0.6,2.9,1,4.5,1c5.9,0,10.7-4.8,10.7-10.7c0-5.9-4.8-10.7-10.7-10.7
			c-5.9,0-10.7,4.8-10.7,10.7C336.9,146.7,337.2,148.1,337.7,149.4z M253.7,240.1l1.4-0.1l1.4-0.1l27.2-2.5l0.6-0.1
			c0.8-0.1,1.4,0.5,1.5,1.2c0,0.3-0.1,0.6-0.2,0.9c-0.1,0.2-0.3,0.3-0.4,0.4c-0.2,0.1-0.4,0.2-0.6,0.2l-5.7,0.5h0l-22.5,2.1
			l-1.4,0.1l-1.5,0.1c0.2-0.7,0.4-1.4,0.4-2.1C253.8,240.6,253.8,240.4,253.7,240.1z M245.3,233.3l0.2-1.5l3.2-20.5l0,0l0.9-5.9
			c0-0.2,0.1-0.3,0.2-0.5c0,0,0,0,0-0.1c0,0,0.1-0.1,0.1-0.1c0,0,0.1-0.1,0.1-0.1c0,0,0.1-0.1,0.1-0.1c0.1,0,0.1-0.1,0.2-0.1
			c0.3-0.2,0.6-0.2,0.9-0.2c0.8,0.1,1.3,0.8,1.1,1.6l-0.1,0.6l-3.9,25.3l-0.2,1.4l-0.2,1.3c-0.2,0-0.3,0-0.5,0
			c-0.8,0-1.6,0.1-2.3,0.4L245.3,233.3z"/>
		<path class="st1" d="M245.3,233.3c0.7-0.2,1.4-0.3,2.1-0.3c0.3,0,0.5,0,0.7,0c1.5,0.1,2.8,0.7,4,1.5c0.7,0.6,1.4,1.2,1.8,2
			c0.7,1,1.1,2.2,1.2,3.4c0,0.2,0,0.5,0,0.8c0,0.7-0.1,1.4-0.3,2c-0.9,3.3-3.9,5.8-7.5,5.8c-1.6,0-3.2-0.5-4.4-1.4
			c-0.8-0.5-1.4-1.2-1.9-1.9c-0.9-1.3-1.4-2.8-1.4-4.4C239.6,237.2,242,234.2,245.3,233.3z M242,244.3c0.5,0.8,1.2,1.4,1.9,1.9
			c1,0.6,2.2,1,3.4,1c2.8,0,5.1-1.8,6-4.3c0.2-0.7,0.4-1.4,0.4-2.1c0-0.2,0-0.4,0-0.6c-0.1-0.9-0.4-1.8-0.8-2.6
			c-0.5-0.8-1.1-1.5-1.8-2c-0.9-0.7-2-1.1-3.2-1.2c-0.2,0-0.3,0-0.5,0c-0.8,0-1.6,0.1-2.3,0.4c-2.4,0.9-4.1,3.3-4.1,6
			C241,242.1,241.3,243.2,242,244.3z"/>
		<path class="st1" d="M245.5,231.8c0.6-0.1,1.2-0.2,1.8-0.2c0.3,0,0.6,0,0.9,0.1c1.8,0.2,3.4,0.9,4.8,1.9c0.7,0.6,1.3,1.2,1.9,2
			c0.9,1.2,1.4,2.7,1.6,4.3c0,0.3,0,0.6,0,0.9c0,0.6-0.1,1.3-0.2,1.9c-0.9,4.1-4.5,7.3-8.9,7.3c-2,0-3.9-0.7-5.4-1.8
			c-0.7-0.5-1.4-1.2-1.9-1.9c-1.1-1.5-1.8-3.4-1.8-5.4C238.2,236.4,241.4,232.7,245.5,231.8z M243.9,246.2c1,0.6,2.2,1,3.4,1
			c2.8,0,5.1-1.8,6-4.3c0.2-0.7,0.4-1.4,0.4-2.1c0-0.2,0-0.4,0-0.6c-0.1-0.9-0.4-1.8-0.8-2.6c-0.5-0.8-1.1-1.5-1.8-2
			c-0.9-0.7-2-1.1-3.2-1.2c-0.2,0-0.3,0-0.5,0c-0.8,0-1.6,0.1-2.3,0.4c-2.4,0.9-4.1,3.3-4.1,6c0,1.3,0.4,2.5,1,3.5
			C242.5,245,243.1,245.7,243.9,246.2z M345.9,174.4l14.2,24.6c6.2,10.7,6.2,24,0,34.7l-26.9,46.3h-5.5l28.3-48.7
			c5.3-9.2,5.3-20.7,0-29.9l-15.6-27l0-0.1H345.9z M49.9,138.8L86,76.2c6.2-10.7,17.7-17.4,30.1-17.4h35v0h12.4v4.8H144l0,0h-27.9
			c-10.7,0-20.6,5.7-25.9,15l-34.8,60.2H49.9z M316.4,138.8l-34.8-60.2c-5.3-9.2-15.3-15-25.9-15h-27.9l0,0h-19.6v-4.8h12.4v0h35.1
			c12.4,0,23.9,6.7,30.1,17.4l36.1,62.6H316.4z M556,188c-7.4,10.2-16.9,18.3-28.5,24.3c-11.6,6.1-24.2,9.1-37.7,9.1
			c-14.9,0-28.6-3.7-40.9-10.9c-12.4-7.3-22.2-17.2-29.5-29.6c-7.3-12.4-10.9-26.1-10.9-41c0-10.9,2.1-21.4,6.2-31.4
			c4.1-10,10-18.8,17.6-26.4c7.6-7.6,16.4-13.4,26.3-17.5c9.9-4.1,20.3-6.1,31.2-6.1c13.5,0,26.1,3,37.6,8.9
			c11.5,5.9,21,14.1,28.4,24.6L545.6,99c-3.8-5.4-8.8-10.3-14.8-14.6c-6-4.4-12.4-7.7-19.3-9.9c-6.8-2.2-14.1-3.3-21.8-3.3
			c-12.3,0-23.7,3-34.4,9.1c-10.6,6.1-19,14.5-25.1,25.2c-6.1,10.8-9.2,22.2-9.2,34.4c0,12.4,3.1,24,9.2,34.6
			c6.1,10.6,14.5,19,25.1,25.1c10.6,6.2,22,9.2,34.4,9.2c11.4,0,21.9-2.5,31.7-7.6c9.8-5.1,17.8-11.9,24.1-20.5L556,188z
			 M635.5,174.1v44.3h-12.7v-44.3h-16.4l7.6-12.7h8.8V99.2c0-7.2,1.8-14,5.5-20.3c3.7-6.3,8.7-11.3,15-15c6.3-3.7,13.1-5.5,20.3-5.5
			c7.2,0,14,1.8,20.3,5.5c6.3,3.7,11.3,8.7,15,15c3.7,6.3,5.5,13.1,5.5,20.3v119.2h-12.7v-44.3H635.5z M635.5,161.5h56.2V99.2
			c0-5.5-1.3-10.4-4-14.8c-2.7-4.3-6.2-7.6-10.5-9.9c-4.3-2.3-8.8-3.5-13.6-3.5c-8.3,0-15.1,2.8-20.3,8.5
			c-5.2,5.7-7.8,12.2-7.8,19.6V161.5z M774.7,106.8v111.6H762V58.7l65,114.8V61.7h12.7v159.8L774.7,106.8z M910,106.8v111.6h-12.7
			V58.7l65,114.8V61.7H975v159.8L910,106.8z M1058.3,174.1v44.3h-12.7v-44.3h-16.4l7.6-12.7h8.8V99.2c0-7.2,1.8-14,5.5-20.3
			c3.7-6.3,8.7-11.3,15-15c6.3-3.7,13.1-5.5,20.3-5.5s14,1.8,20.3,5.5c6.3,3.7,11.3,8.7,15,15c3.7,6.3,5.5,13.1,5.5,20.3v119.2
			h-12.7v-44.3H1058.3z M1058.3,161.5h56.2V99.2c0-5.5-1.3-10.4-4-14.8c-2.7-4.3-6.2-7.6-10.5-9.9c-4.3-2.3-8.8-3.5-13.6-3.5
			c-8.3,0-15.1,2.8-20.3,8.5c-5.2,5.7-7.8,12.2-7.8,19.6V161.5z M1260.4,118.1c8.1,4.6,14.8,11,19.8,19.3c5.1,8.2,7.6,17.4,7.6,27.5
			c0,9.7-2.4,18.6-7.2,26.9c-4.8,8.2-11.3,14.7-19.5,19.5c-8.2,4.8-17.2,7.1-26.9,7.1h-33.9v-94.3h-19.1l7.6-12.9h11.5V61.7h41.7
			c8.6,0,15.9,3,22,9.1c6.1,6.1,9.1,13.5,9.1,22.2C1273.3,103.6,1269,112,1260.4,118.1z M1213.1,111.4h29c5.5,0,10-1.9,13.4-5.6
			c3.4-3.8,5.1-8,5.1-12.8c0-5.5-1.8-10-5.4-13.5c-3.6-3.5-8-5.2-13-5.2h-29V111.4z M1213.1,124.1v81.6h21.2
			c11.7,0,21.4-4.1,29.2-12.2c7.8-8.2,11.7-17.7,11.7-28.6c0-7.8-1.9-14.8-5.7-21c-3.8-6.2-8.8-11-15.1-14.5
			c-6.3-3.5-13-5.3-20.1-5.3H1213.1z M1342,61.7h12.7v156.8H1342V61.7z M1421.1,182c1.8,7.8,5.8,14.1,12,18.9
			c6.2,4.8,13.1,7.1,20.8,7.1c9.5,0,17.5-3.3,23.8-9.8c6.4-6.5,9.6-14.4,9.6-23.6c0-8.1-2.3-15.1-6.9-20.9
			c-4.6-5.8-10.5-9.6-17.8-11.4l-18-4.6c-8.8-2.3-15.9-7-21.3-14.2c-5.4-7.1-8.2-15.3-8.2-24.3c0-11.1,3.9-20.5,11.6-28.2
			s17.2-11.6,28.2-11.6c7.1,0,13.7,1.8,19.9,5.4c6.2,3.6,11.1,8.4,14.6,14.4l-11.1,6.2c-5.1-8.9-12.9-13.4-23.5-13.4
			c-7.5,0-13.9,2.7-19.2,8.2c-5.3,5.4-8,11.8-8,19c0,6.3,1.9,11.9,5.8,16.8c3.8,4.9,8.6,8.1,14.3,9.5l18,4.6
			c10,2.6,18.2,8.1,24.5,16.4c6.2,8,9.3,17.1,9.6,27.1v2c-0.2,12.5-4.8,23-13.6,31.7c-9.1,8.9-19.9,13.4-32.5,13.4
			c-10.6,0-20.1-3.3-28.4-9.9c-8.3-6.6-13.8-15.1-16.4-25.4L1421.1,182z"/>
		<path class="st1" d="M462.4,308.3c5.6,3.1,10.1,7.5,13.5,13.1c3.5,5.6,5.2,11.9,5.2,18.8c0,6.6-1.6,12.7-4.9,18.3
			c-3.3,5.6-7.7,10.1-13.3,13.3c-5.6,3.3-11.7,4.9-18.3,4.9h-23.2v-64.4h-13.1l5.2-8.8h7.9v-33.9H450c5.9,0,10.9,2.1,15,6.2
			c4.1,4.1,6.2,9.2,6.2,15.2C471.3,298.4,468.3,304.1,462.4,308.3z M430.1,303.7H450c3.8,0,6.8-1.3,9.1-3.9c2.3-2.6,3.5-5.5,3.5-8.7
			c0-3.8-1.2-6.9-3.7-9.2c-2.5-2.4-5.4-3.5-8.9-3.5h-19.9V303.7z M430.1,312.4v55.8h14.5c8,0,14.6-2.8,19.9-8.4
			c5.3-5.6,7.9-12.1,7.9-19.5c0-5.4-1.3-10.1-3.9-14.3c-2.6-4.2-6-7.5-10.3-9.9c-4.3-2.4-8.9-3.6-13.7-3.6H430.1z M565.3,269.7h8.7
			V349c0,4.9-1.3,9.5-3.8,13.9c-2.5,4.3-5.9,7.7-10.2,10.2c-4.3,2.5-8.9,3.8-13.8,3.8c-4.9,0-9.6-1.3-13.9-3.8
			c-4.3-2.5-7.7-5.9-10.2-10.2c-2.5-4.3-3.8-8.9-3.8-13.9v-79.2h8.7V349c0,4.9,1.8,9.4,5.4,13.3c3.6,3.9,8.2,5.9,13.8,5.9
			c5,0,9.5-1.8,13.4-5.4c3.9-3.6,5.8-8.2,5.8-13.9V269.7z M619.3,351.9c1.3,5.4,4,9.7,8.2,12.9c4.2,3.3,8.9,4.9,14.2,4.9
			c6.5,0,11.9-2.2,16.3-6.7c4.4-4.5,6.5-9.8,6.5-16.1c0-5.6-1.6-10.3-4.7-14.3c-3.1-3.9-7.2-6.5-12.1-7.8l-12.3-3.1
			c-6-1.6-10.8-4.8-14.6-9.7c-3.7-4.9-5.6-10.4-5.6-16.6c0-7.6,2.7-14,8-19.3c5.3-5.3,11.7-8,19.3-8c4.8,0,9.4,1.2,13.6,3.7
			s7.6,5.8,10,9.8l-7.6,4.3c-3.5-6.1-8.8-9.1-16.1-9.1c-5.1,0-9.5,1.9-13.2,5.6c-3.6,3.7-5.4,8.1-5.4,13c0,4.3,1.3,8.1,3.9,11.5
			c2.6,3.4,5.9,5.5,9.8,6.5l12.3,3.1c6.8,1.8,12.4,5.5,16.8,11.2c4.4,5.7,6.5,12.1,6.5,19.2c0,8.8-3.1,16.3-9.3,22.4
			c-6.2,6.1-13.6,9.1-22.2,9.1c-7.3,0-13.7-2.3-19.4-6.8c-5.7-4.5-9.4-10.3-11.2-17.3L619.3,351.9z M710.2,269.7h8.7v107.1h-8.7
			V269.7z M766.9,300.6v76.2h-8.7V267.7l44.4,78.4v-76.4h8.7v109.1L766.9,300.6z M870.1,368.2h40.5v8.7h-49.1v-64.4h-13.1l5.2-8.7
			h7.9v-34h49.1v8.7h-40.5v25.3h25.7v8.7h-25.7V368.2z M955.9,351.9c1.3,5.4,4,9.7,8.2,12.9c4.2,3.3,8.9,4.9,14.2,4.9
			c6.5,0,11.9-2.2,16.3-6.7c4.3-4.5,6.5-9.8,6.5-16.1c0-5.6-1.6-10.3-4.7-14.3c-3.2-3.9-7.2-6.5-12.1-7.8l-12.3-3.1
			c-6-1.6-10.8-4.8-14.6-9.7c-3.7-4.9-5.6-10.4-5.6-16.6c0-7.6,2.7-14,8-19.3c5.3-5.3,11.7-8,19.3-8c4.8,0,9.4,1.2,13.6,3.7
			s7.6,5.8,10,9.8l-7.6,4.3c-3.5-6.1-8.8-9.1-16.1-9.1c-5.1,0-9.5,1.9-13.1,5.6c-3.6,3.7-5.4,8.1-5.4,13c0,4.3,1.3,8.1,3.9,11.5
			c2.6,3.4,5.9,5.5,9.8,6.5l12.3,3.1c6.8,1.8,12.4,5.5,16.8,11.2c4.4,5.7,6.5,12.1,6.5,19.2c0,8.8-3.1,16.3-9.3,22.4
			c-6.2,6.1-13.6,9.1-22.2,9.1c-7.3,0-13.7-2.3-19.4-6.8c-5.7-4.5-9.4-10.3-11.2-17.3L955.9,351.9z M1052.8,351.9
			c1.3,5.4,4,9.7,8.2,12.9c4.2,3.3,8.9,4.9,14.2,4.9c6.5,0,11.9-2.2,16.3-6.7c4.3-4.5,6.5-9.8,6.5-16.1c0-5.6-1.6-10.3-4.7-14.3
			c-3.2-3.9-7.2-6.5-12.1-7.8l-12.3-3.1c-6-1.6-10.9-4.8-14.6-9.7c-3.7-4.9-5.6-10.4-5.6-16.6c0-7.6,2.6-14,7.9-19.3
			c5.3-5.3,11.8-8,19.3-8c4.8,0,9.4,1.2,13.6,3.7c4.3,2.5,7.6,5.8,10,9.8l-7.6,4.3c-3.5-6.1-8.8-9.1-16.1-9.1
			c-5.2,0-9.5,1.9-13.1,5.6c-3.6,3.7-5.4,8.1-5.4,13c0,4.3,1.3,8.1,3.9,11.5c2.6,3.4,5.9,5.5,9.8,6.5l12.3,3.1
			c6.8,1.8,12.4,5.5,16.8,11.2c4.3,5.7,6.5,12.1,6.5,19.2c0,8.8-3.1,16.3-9.3,22.4c-6.2,6.1-13.6,9.1-22.2,9.1
			c-7.2,0-13.7-2.3-19.4-6.8c-5.7-4.5-9.4-10.3-11.2-17.3L1052.8,351.9z M1236.2,269.7h20.8c7.6,0,14.6,1.4,21,4.2
			c6.5,2.8,12.1,6.6,16.9,11.4c4.8,4.8,8.6,10.5,11.4,16.9c2.8,6.5,4.2,13.5,4.2,21c0,9.7-2.4,18.6-7.2,26.9
			c-4.8,8.2-11.3,14.8-19.5,19.5s-17.2,7.2-26.8,7.2H1244v-98.4h-12.9L1236.2,269.7z M1257,368.2c8.2,0,15.7-2,22.6-6
			c6.9-4,12.3-9.4,16.3-16.4c4-6.9,6-14.4,6-22.5c0-6.1-1.2-12-3.6-17.6c-2.4-5.6-5.6-10.4-9.5-14.3c-3.9-3.9-8.6-7-14.3-9.4
			c-5.6-2.4-11.5-3.6-17.6-3.6h-4.4v89.8H1257z M1367,368.2h40.5v8.7h-49.1v-64.4h-13.1l5.2-8.7h7.9v-34h49.1v8.7H1367v25.3h25.7
			v8.7H1367V368.2z M1455.5,300.6v76.2h-8.7V267.7l44.4,78.4v-76.4h8.7v109.1L1455.5,300.6z"/>
	</g>
</g>
</svg>
