<svg width="15" height="15" viewBox="0 0 15 15" fill="none" xmlns="http://www.w3.org/2000/svg">
<path d="M12.7689 9.39092C12.0769 8.6989 11.2646 8.17018 10.3791 7.82375C11.3241 7.07242 11.9316 5.91294 11.9316 4.61377C11.9316 2.35306 10.0926 0.514062 7.83192 0.514062C5.57122 0.514062 3.73222 2.35306 3.73222 4.61377C3.73222 5.91294 4.33979 7.07242 5.28476 7.82375C4.39929 8.17018 3.58701 8.6989 2.89497 9.39092L2.99996 9.49591L2.89496 9.39092C1.57646 10.7095 0.85 12.4632 0.85 14.3279V14.4779H1H2.06749H2.21749V14.3279C2.21749 11.2322 4.73624 8.71347 7.83192 8.71347C10.9276 8.71347 13.4464 11.2322 13.4464 14.3279V14.4779H13.5964H14.6638H14.8138V14.3279C14.8138 12.4632 14.0874 10.7095 12.7689 9.39092L12.6628 9.49699L12.7689 9.39092ZM7.83192 7.34598C6.32551 7.34598 5.0997 6.1202 5.0997 4.61377C5.0997 3.10733 6.32551 1.88155 7.83192 1.88155C9.33833 1.88155 10.5641 3.10733 10.5641 4.61377C10.5641 6.1202 9.33833 7.34598 7.83192 7.34598Z" fill="#58595B" stroke="#58595B" stroke-width="0.3"/>
</svg>
